<svg width="316" height="89" viewBox="0 0 316 89" fill="none" xmlns="http://www.w3.org/2000/svg">
<path d="M58.2713 36.6V49H50.1713V36.5L36.6213 14H45.2213L54.5713 29.55L63.9213 14H71.8713L58.2713 36.6ZM133.291 49.6C128.291 49.6 124.391 48.2167 121.591 45.45C118.824 42.6833 117.441 38.7333 117.441 33.6V14H125.541V33.3C125.541 39.5667 128.141 42.7 133.341 42.7C135.874 42.7 137.807 41.95 139.141 40.45C140.474 38.9167 141.141 36.5333 141.141 33.3V14H149.141V33.6C149.141 38.7333 147.741 42.6833 144.941 45.45C142.174 48.2167 138.291 49.6 133.291 49.6ZM157.145 14H173.045C176.845 14 180.195 14.7333 183.095 16.2C186.028 17.6333 188.295 19.6667 189.895 22.3C191.528 24.9333 192.345 28 192.345 31.5C192.345 35 191.528 38.0667 189.895 40.7C188.295 43.3333 186.028 45.3833 183.095 46.85C180.195 48.2833 176.845 49 173.045 49H157.145V14ZM172.645 42.35C176.145 42.35 178.928 41.3833 180.995 39.45C183.095 37.4833 184.145 34.8333 184.145 31.5C184.145 28.1667 183.095 25.5333 180.995 23.6C178.928 21.6333 176.145 20.65 172.645 20.65H165.245V42.35H172.645ZM215.404 49.6C211.77 49.6 208.487 48.8167 205.554 47.25C202.654 45.6833 200.37 43.5333 198.704 40.8C197.07 38.0333 196.254 34.9333 196.254 31.5C196.254 28.0667 197.07 24.9833 198.704 22.25C200.37 19.4833 202.654 17.3167 205.554 15.75C208.487 14.1833 211.77 13.4 215.404 13.4C219.037 13.4 222.304 14.1833 225.204 15.75C228.104 17.3167 230.387 19.4833 232.054 22.25C233.72 24.9833 234.554 28.0667 234.554 31.5C234.554 34.9333 233.72 38.0333 232.054 40.8C230.387 43.5333 228.104 45.6833 225.204 47.25C222.304 48.8167 219.037 49.6 215.404 49.6ZM215.404 42.7C217.47 42.7 219.337 42.2333 221.004 41.3C222.67 40.3333 223.97 39 224.904 37.3C225.87 35.6 226.354 33.6667 226.354 31.5C226.354 29.3333 225.87 27.4 224.904 25.7C223.97 24 222.67 22.6833 221.004 21.75C219.337 20.7833 217.47 20.3 215.404 20.3C213.337 20.3 211.47 20.7833 209.804 21.75C208.137 22.6833 206.82 24 205.854 25.7C204.92 27.4 204.454 29.3333 204.454 31.5C204.454 33.6667 204.92 35.6 205.854 37.3C206.82 39 208.137 40.3333 209.804 41.3C211.47 42.2333 213.337 42.7 215.404 42.7ZM257.591 49.6C253.958 49.6 250.675 48.8167 247.741 47.25C244.841 45.6833 242.558 43.5333 240.891 40.8C239.258 38.0333 238.441 34.9333 238.441 31.5C238.441 28.0667 239.258 24.9833 240.891 22.25C242.558 19.4833 244.841 17.3167 247.741 15.75C250.675 14.1833 253.958 13.4 257.591 13.4C261.225 13.4 264.491 14.1833 267.391 15.75C270.291 17.3167 272.575 19.4833 274.241 22.25C275.908 24.9833 276.741 28.0667 276.741 31.5C276.741 34.9333 275.908 38.0333 274.241 40.8C272.575 43.5333 270.291 45.6833 267.391 47.25C264.491 48.8167 261.225 49.6 257.591 49.6ZM257.591 42.7C259.658 42.7 261.525 42.2333 263.191 41.3C264.858 40.3333 266.158 39 267.091 37.3C268.058 35.6 268.541 33.6667 268.541 31.5C268.541 29.3333 268.058 27.4 267.091 25.7C266.158 24 264.858 22.6833 263.191 21.75C261.525 20.7833 259.658 20.3 257.591 20.3C255.525 20.3 253.658 20.7833 251.991 21.75C250.325 22.6833 249.008 24 248.041 25.7C247.108 27.4 246.641 29.3333 246.641 31.5C246.641 33.6667 247.108 35.6 248.041 37.3C249.008 39 250.325 40.3333 251.991 41.3C253.658 42.2333 255.525 42.7 257.591 42.7Z" fill="#8280F0"/>
<path d="M99.5833 29.375C101.378 29.375 102.833 27.9479 102.833 26.1875C102.833 24.4271 101.378 23 99.5833 23C97.7884 23 96.3333 24.4271 96.3333 26.1875C96.3333 27.9479 97.7884 29.375 99.5833 29.375Z" fill="#8280F0"/>
<path d="M84.4167 29.375C86.2116 29.375 87.6667 27.9479 87.6667 26.1875C87.6667 24.4271 86.2116 23 84.4167 23C82.6217 23 81.1667 24.4271 81.1667 26.1875C81.1667 27.9479 82.6217 29.375 84.4167 29.375Z" fill="#8280F0"/>
<path d="M91.9783 10.25C80.0183 10.25 70.3333 19.77 70.3333 31.5C70.3333 43.23 80.0183 52.75 91.9783 52.75C103.96 52.75 113.667 43.23 113.667 31.5C113.667 19.77 103.96 10.25 91.9783 10.25ZM92 48.5C82.4233 48.5 74.6667 40.8925 74.6667 31.5C74.6667 22.1075 82.4233 14.5 92 14.5C101.577 14.5 109.333 22.1075 109.333 31.5C109.333 40.8925 101.577 48.5 92 48.5ZM81.1667 35.75C82.8567 40.7225 87.06 44.25 92 44.25C96.94 44.25 101.143 40.7225 102.833 35.75H81.1667Z" fill="#8280F0"/>
<path d="M74 13C74 -0.888896 81.875 -1.81486 88 5.59263" stroke="#8280F0"/>
<path d="M114 13C114 -0.888878 106.125 -1.81484 100 5.59264" stroke="#8280F0"/>
</svg>
